# xmcd
#
# Track frame offsets: 
#        150
#        12246
#        22400
#        34772
#        44990
#        59254
#        67963
#        79702
#        93041
#        106502
#        119365
#        129319
#        137507
#        148905
#        162442
#        174539
#        185224
#        198482
#        211461
#        222920
#        236744
#        248279
#        257274
#        267826
#        279817
#        294477
#
# Disc length: 4094 seconds
#
# Revision: 0
# Processed by: cddbd v1.5.2PL0 Copyright (c) Steve Scherf et al.
# Submitted via: ExactAudioCopy v1.0b3
#
DISCID=7a0ffc1a
DTITLE=Various Artist - The R&B Years 1953 Disk 3
DYEAR=1900
DGENRE=R&B
TTITLE0=Ray Charles - Mess Around
TTITLE1=Bobby Mitchell - Rack 'em Back
TTITLE2=Varetta Dillard - Mercy Mr. Percy
TTITLE3=Billy Wright - After Awhile
TTITLE4=Danny Overbea - Forty Cups of Coffee
TTITLE5=Paul Gayten - Cow Cow Blues
TTITLE6=Fats Domino - Please Don't Leave Me
TTITLE7=Chuck Willis - Don't Deceive Me (Please Don't Go)
TTITLE8=The Clovers - Good Lovin'
TTITLE9=Sonny Knight - But Officer!
TTITLE10=Hank Ballard - Get It
TTITLE11=Tiny Bradshaw - Heavy Juice
TTITLE12=Wynonnie Harris - Rot Gut
TTITLE13=5 Royales - Too Much Lovin'
TTITLE14=The Prisonaires - Just Walkin' in The Rain
TTITLE15=Oscar McLollie - The Honey Jump Part 1
TTITLE16=Oscar McLollie - The Honey Jump Part 2
TTITLE17=Faye Adams - Shake A Hand
TTITLE18=Johnny Moore's Blazers/Frankie Ervin - Dragnet Blues
TTITLE19=Lavern Baker - Soul On Fire
TTITLE20=The Spaniels - Baby It's You
TTITLE21=The Dominoes - You Can't Keep A Good Man Down
TTITLE22=Little Esther - Cherry Wine
TTITLE23=Joe Turner - Honey Hush
TTITLE24=Amos Milburn - One Scotch, One Bourbon, One Beer
TTITLE25=Ray Charles - Heartbreaker
EXTD=
EXTT0=
EXTT1=
EXTT2=
EXTT3=
EXTT4=
EXTT5=
EXTT6=
EXTT7=
EXTT8=
EXTT9=
EXTT10=
EXTT11=
EXTT12=
EXTT13=
EXTT14=
EXTT15=
EXTT16=
EXTT17=
EXTT18=
EXTT19=
EXTT20=
EXTT21=
EXTT22=
EXTT23=
EXTT24=
EXTT25=
PLAYORDER=
